<svg width="42" height="74" viewBox="0 0 42 74" fill="none" xmlns="http://www.w3.org/2000/svg">
<path d="M11 21L21 29.0094L31 21" stroke="white"/>
<path d="M11 29.9907L21 38L31 29.9907" stroke="white"/>
<path d="M9.21035 66.8535C9.21035 66.502 9.15176 66.1885 9.03457 65.9131C8.91738 65.6377 8.72402 65.3916 8.45449 65.1748C8.19082 64.9521 7.8334 64.7471 7.38223 64.5596C6.93691 64.3662 6.38027 64.1758 5.71231 63.9883C5.07363 63.8066 4.49648 63.6074 3.98086 63.3906C3.46523 63.1738 3.02285 62.9248 2.65371 62.6436C2.29043 62.3623 2.01211 62.0342 1.81875 61.6592C1.62539 61.2783 1.52871 60.8359 1.52871 60.332C1.52871 59.8398 1.63418 59.3916 1.84512 58.9873C2.05606 58.583 2.35195 58.2344 2.73281 57.9414C3.11953 57.6484 3.57363 57.4229 4.09512 57.2646C4.62246 57.1064 5.19961 57.0273 5.82656 57.0273C6.72305 57.0273 7.49648 57.1973 8.14688 57.5371C8.80313 57.877 9.30996 58.3369 9.66738 58.917C10.0307 59.4912 10.2123 60.1357 10.2123 60.8506H9.13125C9.13125 60.2939 8.99941 59.7988 8.73574 59.3652C8.47793 58.9258 8.10293 58.583 7.61074 58.3369C7.12441 58.085 6.52969 57.959 5.82656 57.959C5.12344 57.959 4.53164 58.0674 4.05117 58.2842C3.57656 58.4951 3.21621 58.7793 2.97012 59.1367C2.72988 59.4883 2.60977 59.8809 2.60977 60.3145C2.60977 60.6191 2.66836 60.9004 2.78555 61.1582C2.90273 61.4102 3.09316 61.6475 3.35684 61.8701C3.62637 62.0869 3.98086 62.292 4.42031 62.4854C4.85977 62.6729 5.40176 62.8516 6.04629 63.0215C6.72598 63.209 7.32949 63.417 7.85684 63.6455C8.38418 63.874 8.82949 64.1377 9.19277 64.4365C9.55606 64.7295 9.83145 65.0723 10.0189 65.4648C10.2064 65.8574 10.3002 66.3145 10.3002 66.8359C10.3002 67.3574 10.1889 67.8262 9.96621 68.2422C9.74941 68.6523 9.4418 69.001 9.04336 69.2881C8.65078 69.5752 8.18496 69.7949 7.6459 69.9473C7.1127 70.0996 6.52969 70.1758 5.89688 70.1758C5.32852 70.1758 4.76309 70.1025 4.20059 69.9561C3.63809 69.8096 3.12246 69.584 2.65371 69.2793C2.19082 68.9688 1.81875 68.5703 1.5375 68.084C1.26211 67.5977 1.12441 67.0176 1.12441 66.3438H2.19668C2.19668 66.8828 2.30508 67.3369 2.52188 67.7061C2.73867 68.0752 3.02578 68.374 3.3832 68.6025C3.74648 68.8311 4.14492 68.998 4.57852 69.1035C5.01797 69.2031 5.45742 69.2529 5.89688 69.2529C6.5707 69.2529 7.15371 69.1533 7.6459 68.9541C8.14395 68.7549 8.52773 68.4766 8.79727 68.1191C9.07266 67.7559 9.21035 67.334 9.21035 66.8535ZM15.3588 69.2705C15.8041 69.2705 16.2202 69.1885 16.6069 69.0244C16.9995 68.8545 17.3217 68.6055 17.5737 68.2773C17.8315 67.9434 17.978 67.5361 18.0131 67.0557H19.0151C18.9858 67.6592 18.8012 68.1982 18.4614 68.6729C18.1274 69.1416 17.6879 69.5107 17.143 69.7803C16.6039 70.0439 16.0092 70.1758 15.3588 70.1758C14.6967 70.1758 14.1108 70.0557 13.601 69.8154C13.0971 69.5752 12.6752 69.2412 12.3354 68.8135C11.9955 68.3799 11.7377 67.876 11.562 67.3018C11.392 66.7217 11.3071 66.0977 11.3071 65.4297V65.0605C11.3071 64.3926 11.392 63.7715 11.562 63.1973C11.7377 62.6172 11.9955 62.1133 12.3354 61.6855C12.6752 61.252 13.0971 60.915 13.601 60.6748C14.1049 60.4346 14.6879 60.3145 15.35 60.3145C16.0297 60.3145 16.6391 60.4521 17.1782 60.7275C17.7231 61.0029 18.1567 61.3926 18.4789 61.8965C18.8071 62.4004 18.9858 62.998 19.0151 63.6895H18.0131C17.9838 63.1797 17.8491 62.7402 17.6088 62.3711C17.3686 62.002 17.0522 61.7178 16.6596 61.5186C16.267 61.3193 15.8305 61.2197 15.35 61.2197C14.811 61.2197 14.351 61.3252 13.9702 61.5361C13.5893 61.7412 13.2788 62.0254 13.0385 62.3887C12.8041 62.7461 12.6313 63.1562 12.52 63.6191C12.4086 64.0762 12.353 64.5566 12.353 65.0605V65.4297C12.353 65.9395 12.4057 66.4258 12.5112 66.8887C12.6225 67.3457 12.7954 67.7529 13.0297 68.1104C13.27 68.4678 13.5805 68.752 13.9614 68.9629C14.3481 69.168 14.8139 69.2705 15.3588 69.2705ZM21.6391 62.0635V70H20.5932V60.4902H21.6128L21.6391 62.0635ZM25.0054 60.4199L24.979 61.3867C24.8618 61.3691 24.7475 61.3545 24.6362 61.3428C24.5249 61.3311 24.4048 61.3252 24.2759 61.3252C23.8188 61.3252 23.4175 61.4102 23.0718 61.5801C22.7319 61.7441 22.4448 61.9756 22.2104 62.2744C21.9761 62.5674 21.7973 62.9131 21.6743 63.3115C21.5513 63.7041 21.4809 64.126 21.4634 64.5771L21.0766 64.7266C21.0766 64.1055 21.1411 63.5283 21.27 62.9951C21.3989 62.4619 21.5952 61.9961 21.8589 61.5977C22.1284 61.1934 22.4653 60.8799 22.8696 60.6572C23.2798 60.4287 23.7602 60.3145 24.311 60.3145C24.4458 60.3145 24.5776 60.3262 24.7065 60.3496C24.8413 60.3672 24.9409 60.3906 25.0054 60.4199ZM25.3618 65.3945V65.1045C25.3618 64.4131 25.4614 63.7744 25.6607 63.1885C25.8599 62.6025 26.1441 62.0957 26.5132 61.668C26.8882 61.2402 27.3364 60.9092 27.8579 60.6748C28.3794 60.4346 28.9595 60.3145 29.5982 60.3145C30.2427 60.3145 30.8257 60.4346 31.3472 60.6748C31.8687 60.9092 32.3169 61.2402 32.6919 61.668C33.0669 62.0957 33.354 62.6025 33.5532 63.1885C33.7525 63.7744 33.8521 64.4131 33.8521 65.1045V65.3945C33.8521 66.0859 33.7525 66.7246 33.5532 67.3105C33.354 67.8906 33.0669 68.3945 32.6919 68.8223C32.3228 69.25 31.8775 69.584 31.356 69.8242C30.8345 70.0586 30.2544 70.1758 29.6157 70.1758C28.9712 70.1758 28.3882 70.0586 27.8667 69.8242C27.3452 69.584 26.897 69.25 26.522 68.8223C26.147 68.3945 25.8599 67.8906 25.6607 67.3105C25.4614 66.7246 25.3618 66.0859 25.3618 65.3945ZM26.4077 65.1045V65.3945C26.4077 65.916 26.478 66.4111 26.6187 66.8799C26.7593 67.3428 26.9644 67.7559 27.2339 68.1191C27.5034 68.4766 27.8374 68.7578 28.2359 68.9629C28.6343 69.168 29.0943 69.2705 29.6157 69.2705C30.1314 69.2705 30.5855 69.168 30.978 68.9629C31.3765 68.7578 31.7105 68.4766 31.98 68.1191C32.2495 67.7559 32.4517 67.3428 32.5864 66.8799C32.7271 66.4111 32.7974 65.916 32.7974 65.3945V65.1045C32.7974 64.5889 32.7271 64.0996 32.5864 63.6367C32.4517 63.1738 32.2466 62.7607 31.9712 62.3975C31.7017 62.0342 31.3677 61.7471 30.9693 61.5361C30.5708 61.3252 30.1138 61.2197 29.5982 61.2197C29.0825 61.2197 28.6255 61.3252 28.2271 61.5361C27.8345 61.7471 27.5005 62.0342 27.2251 62.3975C26.9556 62.7607 26.7505 63.1738 26.6099 63.6367C26.4751 64.0996 26.4077 64.5889 26.4077 65.1045ZM36.6607 56.5V70H35.6148V56.5H36.6607ZM40.1637 56.5V70H39.1178V56.5H40.1637Z" fill="white"/>
<line x1="21.5" y1="29" x2="21.5" y2="-2.18557e-08" stroke="white"/>
</svg>
